<svg width="64.000000" height="64.000000" viewBox="0 0 64 64" fill="none" xmlns="http://www.w3.org/2000/svg" xmlns:xlink="http://www.w3.org/1999/xlink">
	<desc>
			Created with Pixso.
	</desc>
	<defs>
		<clipPath id="clip2_9">
			<rect id="function" width="64.000000" height="64.000000" fill="white" fill-opacity="0"/>
		</clipPath>
	</defs>
	<g clip-path="url(#clip2_9)">
		<path id="path" d="M31.91 50.09C32.73 50.09 33.3 49.64 33.3 48.82C33.3 48.46 33.21 48.27 32.94 47.76C30.02 43.23 28.36 38.03 28.36 32.39C28.36 26.95 29.92 21.51 32.94 16.95C33.21 16.45 33.3 16.26 33.3 15.9C33.3 15.13 32.73 14.63 31.91 14.63C31.12 14.63 30.47 14.98 29.71 16.04C26.11 20.62 24.29 26.33 24.29 32.37C24.29 38.41 26.04 43.95 29.7 48.68C30.47 49.73 31.12 50.09 31.91 50.09ZM56.39 50.09C57.18 50.09 57.81 49.73 58.58 48.68C62.24 43.95 64 38.41 64 32.37C64 26.33 62.2 20.62 58.58 16.04C57.81 14.98 57.18 14.63 56.39 14.63C55.58 14.63 55 15.13 55 15.9C55 16.26 55.08 16.45 55.34 16.95C58.38 21.51 59.94 26.95 59.94 32.39C59.94 38.03 58.26 43.23 55.36 47.77C55.08 48.27 55 48.46 55 48.82C55 49.59 55.58 50.09 56.39 50.09ZM3.23 50.04C7.93 50.04 10.11 48.03 11.24 42.63L13.97 29.52L18.32 29.52C19.71 29.52 20.59 28.77 20.59 27.57C20.59 26.54 19.92 25.9 18.82 25.9L14.77 25.9L15.44 22.64C16.06 19.59 17.02 18.34 19.68 18.34C20.07 18.34 20.45 18.32 20.71 18.29C21.91 18.17 22.44 17.62 22.44 16.59C22.44 15.25 21.31 14.65 19.01 14.65C14.43 14.65 12.08 16.93 11.03 22.06L10.21 25.9L7.24 25.9C5.85 25.9 4.93 26.64 4.93 27.84C4.93 28.87 5.63 29.52 6.73 29.52L9.44 29.52L6.81 42.06C6.13 45.2 5.15 46.35 2.58 46.35C2.25 46.35 1.94 46.37 1.7 46.4C0.59 46.54 0 47.14 0 48.15C0 49.44 1.1 50.04 3.23 50.04ZM36.92 43.74C37.71 43.74 38.24 43.47 38.84 42.61L44.09 35.13L44.19 35.13L49.56 42.73C50.16 43.57 50.73 43.74 51.31 43.74C52.46 43.74 53.23 42.92 53.23 41.94C53.23 41.48 53.09 41.05 52.77 40.64L46.64 32.3L52.77 24.07C53.09 23.67 53.23 23.23 53.23 22.73C53.23 21.7 52.37 20.98 51.41 20.98C50.54 20.98 50.04 21.41 49.58 22.11L44.52 29.52L44.4 29.52L39.32 22.08C38.86 21.39 38.29 20.98 37.38 20.98C36.28 20.98 35.43 21.87 35.43 22.83C35.43 23.52 35.63 23.95 35.96 24.36L41.79 32.18L35.6 40.74C35.24 41.2 35.17 41.6 35.17 42.08C35.17 43.02 35.96 43.74 36.92 43.74Z" fill="#000000" fill-opacity="1.000000" fill-rule="nonzero"/>
	</g>
</svg>
