<svg width="64.000000" height="64.000000" viewBox="0 0 64 64" fill="none" xmlns="http://www.w3.org/2000/svg" xmlns:xlink="http://www.w3.org/1999/xlink">
	<desc>
			Created with Pixso.
	</desc>
	<defs>
		<clipPath id="clip2_15">
			<rect id="金融&amp;货币－15-copy" width="64.000000" height="64.000000" fill="white" fill-opacity="0"/>
		</clipPath>
	</defs>
	<g clip-path="url(#clip2_15)">
		<path id="path" d="M45.75 34.16L37.37 34.16C36.79 34.16 36.31 33.69 36.31 33.1C36.31 32.52 36.79 32.05 37.37 32.05L45.75 32.05C46.33 32.05 46.8 32.52 46.8 33.1C46.8 33.69 46.33 34.16 45.75 34.16ZM45.75 48.9L37.37 48.9C36.79 48.9 36.31 48.43 36.31 47.85C36.31 47.27 36.79 46.8 37.37 46.8L45.75 46.8C46.33 46.8 46.8 47.27 46.8 47.85C46.8 48.43 46.33 48.9 45.75 48.9ZM26.79 34.16L18.41 34.16C17.83 34.16 17.36 33.69 17.36 33.1C17.36 32.52 17.83 32.05 18.41 32.05L26.79 32.05C27.38 32.05 27.85 32.52 27.85 33.1C27.85 33.69 27.38 34.16 26.79 34.16Z" fill="#231F20" fill-opacity="1.000000" fill-rule="nonzero"/>
		<path id="path" d="M22.6 38.35C22.02 38.35 21.55 37.88 21.55 37.3L21.55 28.91C21.55 28.33 22.02 27.86 22.6 27.86C23.18 27.86 23.65 28.33 23.65 28.91L23.65 37.3C23.65 37.88 23.18 38.35 22.6 38.35ZM26.75 53.05C26.48 53.05 26.21 52.95 26.01 52.74L17.71 44.44C17.3 44.03 17.3 43.37 17.71 42.96C18.12 42.54 18.79 42.54 19.2 42.96L27.5 51.25C27.91 51.67 27.91 52.33 27.5 52.74C27.29 52.95 27.04 53.05 26.75 53.05Z" fill="#231F20" fill-opacity="1.000000" fill-rule="nonzero"/>
		<path id="path" d="M18.45 53.05C18.18 53.05 17.91 52.95 17.71 52.74C17.3 52.33 17.3 51.67 17.71 51.25L26.01 42.96C26.42 42.54 27.08 42.54 27.5 42.96C27.91 43.37 27.91 44.03 27.5 44.44L19.2 52.74C18.99 52.95 18.74 53.05 18.45 53.05ZM41.56 44.69C41.26 44.69 41.01 44.56 40.8 44.38C40.61 44.19 40.51 43.91 40.51 43.64C40.51 43.36 40.61 43.09 40.82 42.88C41.2 42.5 41.9 42.5 42.3 42.88C42.51 43.09 42.61 43.36 42.61 43.64C42.61 43.91 42.51 44.19 42.3 44.38C42.11 44.59 41.83 44.69 41.56 44.69ZM41.56 53.12C41.29 53.12 41.01 52.99 40.8 52.8C40.61 52.61 40.51 52.34 40.51 52.06C40.51 51.77 40.61 51.52 40.82 51.31C41.18 50.93 41.9 50.93 42.3 51.33C42.51 51.52 42.61 51.79 42.61 52.06C42.61 52.34 42.51 52.61 42.32 52.8C42.11 53.01 41.86 53.12 41.56 53.12Z" fill="#231F20" fill-opacity="1.000000" fill-rule="nonzero"/>
		<path id="path" d="M49.96 63.59L14.16 63.59C11.25 63.59 8.89 61.22 8.89 58.32L8.89 5.66C8.89 2.76 11.25 0.39 14.16 0.39L49.96 0.39C52.87 0.39 55.23 2.76 55.23 5.66L55.23 58.32C55.23 61.22 52.87 63.59 49.96 63.59ZM14.16 2.5C12.41 2.5 11 3.92 11 5.66L11 58.32C11 60.06 12.41 61.48 14.16 61.48L49.96 61.48C51.71 61.48 53.12 60.06 53.12 58.32L53.12 5.66C53.12 3.92 51.71 2.5 49.96 2.5L14.16 2.5Z" fill="#231F20" fill-opacity="1.000000" fill-rule="nonzero"/>
		<path id="path" d="M45.75 21.46L18.37 21.46C17.79 21.46 17.31 20.99 17.31 20.41L17.31 9.87C17.31 9.29 17.79 8.82 18.37 8.82L45.75 8.82C46.33 8.82 46.8 9.29 46.8 9.87L46.8 20.41C46.8 20.99 46.33 21.46 45.75 21.46ZM19.42 19.35L44.7 19.35L44.7 10.93L19.42 10.93L19.42 19.35Z" fill="#231F20" fill-opacity="1.000000" fill-rule="nonzero"/>
	</g>
</svg>
